<svg width="38" height="38" viewBox="0 0 38 38" fill="none" xmlns="http://www.w3.org/2000/svg">
<path d="M19 8.99967V35.6663M19 8.99967H13.1071C12.2389 8.99967 11.4062 8.64849 10.7922 8.02336C10.1783 7.39824 9.83333 6.5504 9.83333 5.66634C9.83333 4.78229 10.1783 3.93444 10.7922 3.30932C11.4062 2.6842 12.2389 2.33301 13.1071 2.33301C17.6905 2.33301 19 8.99967 19 8.99967ZM19 8.99967H24.8929C25.7611 8.99967 26.5938 8.64849 27.2078 8.02336C27.8217 7.39824 28.1667 6.5504 28.1667 5.66634C28.1667 4.78229 27.8217 3.93444 27.2078 3.30932C26.5938 2.6842 25.7611 2.33301 24.8929 2.33301C20.3095 2.33301 19 8.99967 19 8.99967ZM32.3333 17.333V30.333C32.3333 32.1999 32.3333 33.1333 31.97 33.8463C31.6504 34.4735 31.1405 34.9835 30.5133 35.303C29.8003 35.6663 28.8668 35.6663 27 35.6663L11 35.6663C9.13316 35.6663 8.19974 35.6663 7.4867 35.303C6.85949 34.9834 6.34956 34.4735 6.02998 33.8463C5.66667 33.1333 5.66667 32.1998 5.66667 30.333V17.333M2.33333 11.6663L2.33333 14.6663C2.33333 15.5998 2.33333 16.0665 2.51499 16.423C2.67478 16.7366 2.92975 16.9916 3.24335 17.1514C3.59987 17.333 4.06658 17.333 5 17.333L33 17.333C33.9334 17.333 34.4001 17.333 34.7567 17.1514C35.0703 16.9916 35.3252 16.7366 35.485 16.423C35.6667 16.0665 35.6667 15.5998 35.6667 14.6663V11.6663C35.6667 10.7329 35.6667 10.2662 35.485 9.90969C35.3252 9.59609 35.0703 9.34112 34.7567 9.18133C34.4001 8.99968 33.9334 8.99968 33 8.99968L5 8.99967C4.06658 8.99967 3.59987 8.99967 3.24335 9.18133C2.92975 9.34112 2.67478 9.59609 2.51499 9.90969C2.33333 10.2662 2.33333 10.7329 2.33333 11.6663Z" stroke="#43A548" stroke-width="3" stroke-linecap="round" stroke-linejoin="round"/>
</svg>
